{"accessors" : [{"bufferView" : 0, "byteOffset" : 0, "componentType" : 5125, "count" : 184572, "type" : "SCALAR", "max" : [148872], "min" : [0]}, {"bufferView" : 1, "byteOffset" : 0, "componentType" : 5126, "count" : 148873, "type" : "VEC3", "max" : [0.7933750152587891, 6.500626564025879, 0.9490454196929932], "min" : [-1.1864416599273682, 0.5155582427978516, -0.6536818742752075], "name" : "POSITION"}], "asset" : {"generator" : "Aspose.3D 22.5.1", "version" : "2.0"}, "buffers" : [{"uri" : "data:application/octet-stream;base64,", "byteLength" : 2953160}], "bufferViews" : [{"buffer" : 0, "byteOffset" : 0, "byteLength" : 738288, "target" : 34963}, {"buffer" : 0, "byteOffset" : 738292, "byteLength" : 2214864, "byteStride" : 12, "target" : 34962}], "meshes" : [{"primitives" : [{"attributes" : {"POSITION" : 1}, "indices" : 0, "mode" : 4}], "name" : ""}], "nodes" : [{"mesh" : 0, "name" : ""}], "scene" : 0, "scenes" : [{"nodes" : [0]}]}