{
  "accessors": [
    {
      "bufferView": 2,
      "componentType": 5126,
      "count": 65532,
      "max": [
        3.0,
        0.15451255440711975,
        3.0
      ],
      "min": [
        -3.0,
        -0.0497855544090271,
        0.0
      ],
      "type": "VEC3"
    },
    {
      "bufferView": 2,
      "byteOffset": 786384,
      "componentType": 5126,
      "count": 65532,
      "max": [
        0.9781268835067749,
        -0.07104858011007309,
        0.9907580614089966
      ],
      "min": [
        -0.9872922301292419,
        -0.9999980926513672,
        -0.995514988899231
      ],
      "type": "VEC3"
    },
    {
      "bufferView": 3,
      "componentType": 5126,
      "count": 65532,
      "max": [
        -0.08468714356422424,
        0.9935111403465271,
        0.4867185354232788,
        1.0
      ],
      "min": [
        -1.0,
        -0.9963593482971191,
        -0.4866270422935486,
        1.0
      ],
      "type": "VEC4"
    },
    {
      "bufferView": 1,
      "componentType": 5126,
      "count": 65532,
      "max": [
        0.9999998807907104,
        1.0
      ],
      "min": [
        0.0,
        0.0
      ],
      "type": "VEC2"
    },
    {
      "bufferView": 0,
      "componentType": 5125,
      "count": 355998,
      "type": "SCALAR"
    },
    {
      "bufferView": 2,
      "byteOffset": 1572768,
      "componentType": 5126,
      "count": 65532,
      "max": [
        3.0,
        0.1337829828262329,
        3.0
      ],
      "min": [
        0.703125,
        -0.0788329541683197,
        0.0
      ],
      "type": "VEC3"
    },
    {
      "bufferView": 2,
      "byteOffset": 2359152,
      "componentType": 5126,
      "count": 65532,
      "max": [
        0.9909408092498779,
        -0.06906404346227646,
        0.9629861116409302
      ],
      "min": [
        -0.9840946793556213,
        -0.9999992847442627,
        -0.9921998977661133
      ],
      "type": "VEC3"
    },
    {
      "bufferView": 3,
      "byteOffset": 1048512,
      "componentType": 5126,
      "count": 65532,
      "max": [
        -0.07898276299238205,
        0.9954749941825867,
        0.43589308857917786,
        1.0
      ],
      "min": [
        -1.0,
        -0.9968417882919312,
        -0.3832041323184967,
        1.0
      ],
      "type": "VEC4"
    },
    {
      "bufferView": 1,
      "byteOffset": 524256,
      "componentType": 5126,
      "count": 65532,
      "max": [
        0.3828124403953552,
        0.9999998807907104
      ],
      "min": [
        2.0838342607021332e-08,
        2.8405338525772095e-08
      ],
      "type": "VEC2"
    },
    {
      "bufferView": 0,
      "byteOffset": 1423992,
      "componentType": 5125,
      "count": 374526,
      "type": "SCALAR"
    },
    {
      "bufferView": 2,
      "byteOffset": 3145536,
      "componentType": 5126,
      "count": 65532,
      "max": [
        3.0,
        0.1416148841381073,
        3.0
      ],
      "min": [
        -0.181640625,
        -0.06180369853973389,
        0.0
      ],
      "type": "VEC3"
    },
    {
      "bufferView": 2,
      "byteOffset": 3931920,
      "componentType": 5126,
      "count": 65532,
      "max": [
        0.9868062734603882,
        -0.07721425592899323,
        0.9648033976554871
      ],
      "min": [
        -0.9732606410980225,
        -0.999998927116394,
        -0.9938860535621643
      ],
      "type": "VEC3"
    },
    {
      "bufferView": 3,
      "byteOffset": 2097024,
      "componentType": 5126,
      "count": 65532,
      "max": [
        -0.09152542799711227,
        0.9917136430740356,
        0.4867185354232788,
        1.0
      ],
      "min": [
        -1.0,
        -0.9957490563392639,
        -0.23213857412338257,
        1.0
      ],
      "type": "VEC4"
    },
    {
      "bufferView": 1,
      "byteOffset": 1048512,
      "componentType": 5126,
      "count": 65532,
      "max": [
        0.5302734375,
        1.0
      ],
      "min": [
        1.0360963642597198e-08,
        4.4819898903369904e-08
      ],
      "type": "VEC2"
    },
    {
      "bufferView": 0,
      "byteOffset": 2922096,
      "componentType": 5125,
      "count": 372210,
      "type": "SCALAR"
    },
    {
      "bufferView": 2,
      "byteOffset": 4718304,
      "componentType": 5126,
      "count": 65532,
      "max": [
        1.640625,
        0.15276095271110535,
        3.0
      ],
      "min": [
        -3.0,
        -0.0470292866230011,
        0.228515625
      ],
      "type": "VEC3"
    },
    {
      "bufferView": 2,
      "byteOffset": 5504688,
      "componentType": 5126,
      "count": 65532,
      "max": [
        0.9922034740447998,
        -0.10443542152643204,
        0.9791306853294373
      ],
      "min": [
        -0.9874188303947449,
        -0.9999997615814209,
        -0.9761462807655334
      ],
      "type": "VEC3"
    },
    {
      "bufferView": 3,
      "byteOffset": 3145536,
      "componentType": 5126,
      "count": 65532,
      "max": [
        -0.11556246876716614,
        0.9932736158370972,
        0.7313690781593323,
        1.0
      ],
      "min": [
        -1.0,
        -0.9922096729278564,
        -0.5068321228027344,
        1.0
      ],
      "type": "VEC4"
    },
    {
      "bufferView": 1,
      "byteOffset": 1572768,
      "componentType": 5126,
      "count": 65532,
      "max": [
        1.0,
        0.923828125
      ],
      "min": [
        0.2265625,
        1.0419171303510666e-07
      ],
      "type": "VEC2"
    },
    {
      "bufferView": 0,
      "byteOffset": 4410936,
      "componentType": 5125,
      "count": 365895,
      "type": "SCALAR"
    },
    {
      "bufferView": 2,
      "byteOffset": 6291072,
      "componentType": 5126,
      "count": 65532,
      "max": [
        3.0,
        0.14202767610549927,
        3.0
      ],
      "min": [
        -1.869140625,
        -0.0553722083568573,
        0.228515625
      ],
      "type": "VEC3"
    },
    {
      "bufferView": 2,
      "byteOffset": 7077456,
      "componentType": 5126,
      "count": 65532,
      "max": [
        0.9939557313919067,
        -0.06827091425657272,
        0.9861207604408264
      ],
      "min": [
        -0.9909442663192749,
        -0.9999998807907104,
        -0.9913007020950317
      ],
      "type": "VEC3"
    },
    {
      "bufferView": 3,
      "byteOffset": 4194048,
      "componentType": 5126,
      "count": 65532,
      "max": [
        -0.08302906900644302,
        0.996485710144043,
        0.4115580916404724,
        1.0
      ],
      "min": [
        -1.0,
        -0.993962824344635,
        -0.5492700338363647,
        1.0
      ],
      "type": "VEC4"
    },
    {
      "bufferView": 1,
      "byteOffset": 2097024,
      "componentType": 5126,
      "count": 65532,
      "max": [
        0.8115234375,
        0.923828125
      ],
      "min": [
        3.247987478971481e-08,
        1.4784745872020721e-08
      ],
      "type": "VEC2"
    },
    {
      "bufferView": 0,
      "byteOffset": 5874516,
      "componentType": 5125,
      "count": 368415,
      "type": "SCALAR"
    },
    {
      "bufferView": 2,
      "byteOffset": 7863840,
      "componentType": 5126,
      "count": 65532,
      "max": [
        1.939453125,
        0.14978128671646118,
        3.0
      ],
      "min": [
        -2.853515625,
        -0.04953524470329285,
        0.251953125
      ],
      "type": "VEC3"
    },
    {
      "bufferView": 2,
      "byteOffset": 8650224,
      "componentType": 5126,
      "count": 65532,
      "max": [
        0.957465410232544,
        -0.07373417168855667,
        0.9607553482055664
      ],
      "min": [
        -0.9862889051437378,
        -0.9999970197677612,
        -0.994580864906311
      ],
      "type": "VEC3"
    },
    {
      "bufferView": 3,
      "byteOffset": 5242560,
      "componentType": 5126,
      "count": 65532,
      "max": [
        -0.08671373128890991,
        0.9961872100830078,
        0.45072197914123535,
        1.0
      ],
      "min": [
        -1.0,
        -0.988243818283081,
        -0.35441526770591736,
        1.0
      ],
      "type": "VEC4"
    },
    {
      "bufferView": 1,
      "byteOffset": 2621280,
      "componentType": 5126,
      "count": 65532,
      "max": [
        0.9755859375,
        0.916015625
      ],
      "min": [
        0.1767578125,
        7.520429790019989e-08
      ],
      "type": "VEC2"
    },
    {
      "bufferView": 0,
      "byteOffset": 7348176,
      "componentType": 5125,
      "count": 364833,
      "type": "SCALAR"
    },
    {
      "bufferView": 2,
      "byteOffset": 9436608,
      "componentType": 5126,
      "count": 65532,
      "max": [
        2.994140625,
        0.1416148841381073,
        3.0
      ],
      "min": [
        -2.337890625,
        -0.0579676628112793,
        0.169921875
      ],
      "type": "VEC3"
    },
    {
      "bufferView": 2,
      "byteOffset": 10222992,
      "componentType": 5126,
      "count": 65532,
      "max": [
        0.9859867691993713,
        -0.053988657891750336,
        0.9677278995513916
      ],
      "min": [
        -0.9798256158828735,
        -0.9999983310699463,
        -0.9933449029922485
      ],
      "type": "VEC3"
    },
    {
      "bufferView": 3,
      "byteOffset": 6291072,
      "componentType": 5126,
      "count": 65532,
      "max": [
        -0.06301191449165344,
        0.9922318458557129,
        0.47638940811157227,
        1.0
      ],
      "min": [
        -1.0,
        -0.9979867935180664,
        -0.32766997814178467,
        1.0
      ],
      "type": "VEC4"
    },
    {
      "bufferView": 1,
      "byteOffset": 3145536,
      "componentType": 5126,
      "count": 65532,
      "max": [
        0.8896484375,
        0.9433592557907104
      ],
      "min": [
        0.0009765832219272852,
        3.003515303134918e-08
      ],
      "type": "VEC2"
    },
    {
      "bufferView": 0,
      "byteOffset": 8807508,
      "componentType": 5125,
      "count": 366543,
      "type": "SCALAR"
    },
    {
      "bufferView": 2,
      "byteOffset": 11009376,
      "componentType": 5126,
      "count": 65532,
      "max": [
        3.0,
        0.12222534418106079,
        3.0
      ],
      "min": [
        -3.0,
        -0.04840588569641113,
        0.0
      ],
      "type": "VEC3"
    },
    {
      "bufferView": 2,
      "byteOffset": 11795760,
      "componentType": 5126,
      "count": 65532,
      "max": [
        0.9931505918502808,
        -0.07904526591300964,
        0.9923275709152222
      ],
      "min": [
        -0.9831106662750244,
        -0.9999994039535522,
        -0.9956180453300476
      ],
      "type": "VEC3"
    },
    {
      "bufferView": 3,
      "byteOffset": 7339584,
      "componentType": 5126,
      "count": 65532,
      "max": [
        -0.09409160912036896,
        0.9901486039161682,
        0.3981906473636627,
        1.0
      ],
      "min": [
        -1.0,
        -0.9955044388771057,
        -0.5550346970558167,
        1.0
      ],
      "type": "VEC4"
    },
    {
      "bufferView": 1,
      "byteOffset": 3669792,
      "componentType": 5126,
      "count": 65532,
      "max": [
        1.0,
        1.0
      ],
      "min": [
        1.594889909029007e-08,
        3.4924596548080444e-10
      ],
      "type": "VEC2"
    },
    {
      "bufferView": 0,
      "byteOffset": 10273680,
      "componentType": 5125,
      "count": 357525,
      "type": "SCALAR"
    },
    {
      "bufferView": 2,
      "byteOffset": 12582144,
      "componentType": 5126,
      "count": 56948,
      "max": [
        3.0,
        0.1502998173236847,
        3.0
      ],
      "min": [
        -3.0,
        -0.06629586219787598,
        0.0234375
      ],
      "type": "VEC3"
    },
    {
      "bufferView": 2,
      "byteOffset": 13265520,
      "componentType": 5126,
      "count": 56948,
      "max": [
        0.9939159750938416,
        -0.09384684264659882,
        0.9737332463264465
      ],
      "min": [
        -0.9865412712097168,
        -0.9999996423721313,
        -0.9955345392227173
      ],
      "type": "VEC3"
    },
    {
      "bufferView": 3,
      "byteOffset": 8388096,
      "componentType": 5126,
      "count": 56948,
      "max": [
        -0.11005299538373947,
        0.9935111403465271,
        0.5191344022750854,
        1.0
      ],
      "min": [
        -1.0,
        -0.9939257502555847,
        -0.4866270422935486,
        1.0
      ],
      "type": "VEC4"
    },
    {
      "bufferView": 1,
      "byteOffset": 4194048,
      "componentType": 5126,
      "count": 56948,
      "max": [
        1.0,
        0.9921875
      ],
      "min": [
        1.0710209608078003e-08,
        1.0943040251731873e-08
      ],
      "type": "VEC2"
    },
    {
      "bufferView": 0,
      "byteOffset": 11703780,
      "componentType": 5125,
      "count": 219783,
      "type": "SCALAR"
    }
  ],
  "asset": {
    "extras": {
      "author": "chrisg4919 (https://sketchfab.com/chrisg4919)",
      "license": "CC-BY-4.0 (http://creativecommons.org/licenses/by/4.0/)",
      "source": "https://sketchfab.com/3d-models/photoscanned-old-stone-wall-2x4m-594513b103034bffa48370b4ef521106",
      "title": "Photoscanned Old Stone Wall (2x4m)"
    },
    "generator": "Sketchfab-12.68.0",
    "version": "2.0"
  },
  "bufferViews": [
    {
      "buffer": 0,
      "byteLength": 12582912,
      "name": "floatBufferViews",
      "target": 34963
    },
    {
      "buffer": 0,
      "byteLength": 4649632,
      "byteOffset": 12582912,
      "byteStride": 8,
      "name": "floatBufferViews",
      "target": 34962
    },
    {
      "buffer": 0,
      "byteLength": 13948896,
      "byteOffset": 17232544,
      "byteStride": 12,
      "name": "floatBufferViews",
      "target": 34962
    },
    {
      "buffer": 0,
      "byteLength": 9299264,
      "byteOffset": 31181440,
      "byteStride": 16,
      "name": "floatBufferViews",
      "target": 34962
    }
  ],
  "buffers": [
    {
      "byteLength": 40480704,
      "uri": "scene.bin"
    }
  ],
  "images": [
    {
      "uri": "textures/PhotoscannedStoneWall01_Final_baseColor.jpg"
    },
    {
      "uri": "textures/PhotoscannedStoneWall01_Final_normal.jpg"
    }
  ],
  "materials": [
    {
      "doubleSided": true,
      "name": "PhotoscannedStoneWall01_Final",
      "normalTexture": {
        "index": 1
      },
      "pbrMetallicRoughness": {
        "baseColorTexture": {
          "index": 0
        },
        "metallicFactor": 0.0,
        "roughnessFactor": 0.8650946378952873
      }
    }
  ],
  "meshes": [
    {
      "name": "Plane_PhotoscannedStoneWall01_Final_0",
      "primitives": [
        {
          "attributes": {
            "NORMAL": 1,
            "POSITION": 0,
            "TANGENT": 2,
            "TEXCOORD_0": 3
          },
          "indices": 4,
          "material": 0,
          "mode": 4
        }
      ]
    },
    {
      "name": "Plane_PhotoscannedStoneWall01_Final_0",
      "primitives": [
        {
          "attributes": {
            "NORMAL": 6,
            "POSITION": 5,
            "TANGENT": 7,
            "TEXCOORD_0": 8
          },
          "indices": 9,
          "material": 0,
          "mode": 4
        }
      ]
    },
    {
      "name": "Plane_PhotoscannedStoneWall01_Final_0",
      "primitives": [
        {
          "attributes": {
            "NORMAL": 11,
            "POSITION": 10,
            "TANGENT": 12,
            "TEXCOORD_0": 13
          },
          "indices": 14,
          "material": 0,
          "mode": 4
        }
      ]
    },
    {
      "name": "Plane_PhotoscannedStoneWall01_Final_0",
      "primitives": [
        {
          "attributes": {
            "NORMAL": 16,
            "POSITION": 15,
            "TANGENT": 17,
            "TEXCOORD_0": 18
          },
          "indices": 19,
          "material": 0,
          "mode": 4
        }
      ]
    },
    {
      "name": "Plane_PhotoscannedStoneWall01_Final_0",
      "primitives": [
        {
          "attributes": {
            "NORMAL": 21,
            "POSITION": 20,
            "TANGENT": 22,
            "TEXCOORD_0": 23
          },
          "indices": 24,
          "material": 0,
          "mode": 4
        }
      ]
    },
    {
      "name": "Plane_PhotoscannedStoneWall01_Final_0",
      "primitives": [
        {
          "attributes": {
            "NORMAL": 26,
            "POSITION": 25,
            "TANGENT": 27,
            "TEXCOORD_0": 28
          },
          "indices": 29,
          "material": 0,
          "mode": 4
        }
      ]
    },
    {
      "name": "Plane_PhotoscannedStoneWall01_Final_0",
      "primitives": [
        {
          "attributes": {
            "NORMAL": 31,
            "POSITION": 30,
            "TANGENT": 32,
            "TEXCOORD_0": 33
          },
          "indices": 34,
          "material": 0,
          "mode": 4
        }
      ]
    },
    {
      "name": "Plane_PhotoscannedStoneWall01_Final_0",
      "primitives": [
        {
          "attributes": {
            "NORMAL": 36,
            "POSITION": 35,
            "TANGENT": 37,
            "TEXCOORD_0": 38
          },
          "indices": 39,
          "material": 0,
          "mode": 4
        }
      ]
    },
    {
      "name": "Plane_PhotoscannedStoneWall01_Final_0",
      "primitives": [
        {
          "attributes": {
            "NORMAL": 41,
            "POSITION": 40,
            "TANGENT": 42,
            "TEXCOORD_0": 43
          },
          "indices": 44,
          "material": 0,
          "mode": 4
        }
      ]
    }
  ],
  "nodes": [
    {
      "children": [
        1
      ],
      "matrix": [
        1.0,
        0.0,
        0.0,
        0.0,
        0.0,
        2.220446049250313e-16,
        -1.0,
        0.0,
        0.0,
        1.0,
        2.220446049250313e-16,
        0.0,
        0.0,
        0.0,
        0.0,
        1.0
      ],
      "name": "Sketchfab_model"
    },
    {
      "children": [
        2
      ],
      "matrix": [
        0.009999999776482582,
        0.0,
        0.0,
        0.0,
        0.0,
        0.0,
        0.009999999776482582,
        0.0,
        0.0,
        -0.009999999776482582,
        0.0,
        0.0,
        0.0,
        0.0,
        0.0,
        1.0
      ],
      "name": "2abc4c00b22f4fb7a9cf53b3659c1212.fbx"
    },
    {
      "children": [
        3
      ],
      "name": "RootNode"
    },
    {
      "children": [
        4,
        5,
        6,
        7,
        8,
        9,
        10,
        11,
        12
      ],
      "matrix": [
        100.0,
        0.0,
        0.0,
        0.0,
        0.0,
        -1.627205213336461e-05,
        -99.87714385986196,
        0.0,
        0.0,
        99.99999999999868,
        -1.629206793918314e-05,
        0.0,
        0.0,
        0.0,
        6.282194137573242,
        1.0
      ],
      "name": "Plane"
    },
    {
      "mesh": 0,
      "name": "Plane_PhotoscannedStoneWall01_Final_0"
    },
    {
      "mesh": 1,
      "name": "Plane_PhotoscannedStoneWall01_Final_0"
    },
    {
      "mesh": 2,
      "name": "Plane_PhotoscannedStoneWall01_Final_0"
    },
    {
      "mesh": 3,
      "name": "Plane_PhotoscannedStoneWall01_Final_0"
    },
    {
      "mesh": 4,
      "name": "Plane_PhotoscannedStoneWall01_Final_0"
    },
    {
      "mesh": 5,
      "name": "Plane_PhotoscannedStoneWall01_Final_0"
    },
    {
      "mesh": 6,
      "name": "Plane_PhotoscannedStoneWall01_Final_0"
    },
    {
      "mesh": 7,
      "name": "Plane_PhotoscannedStoneWall01_Final_0"
    },
    {
      "mesh": 8,
      "name": "Plane_PhotoscannedStoneWall01_Final_0"
    }
  ],
  "samplers": [
    {
      "magFilter": 9729,
      "minFilter": 9987,
      "wrapS": 10497,
      "wrapT": 10497
    }
  ],
  "scene": 0,
  "scenes": [
    {
      "name": "Sketchfab_Scene",
      "nodes": [
        0
      ]
    }
  ],
  "textures": [
    {
      "sampler": 0,
      "source": 0
    },
    {
      "sampler": 0,
      "source": 1
    }
  ]
}
