{"accessors" : [{"bufferView" : 0, "byteOffset" : 0, "componentType" : 5123, "count" : 6330, "type" : "SCALAR", "max" : [4979], "min" : [0]}, {"bufferView" : 1, "byteOffset" : 0, "componentType" : 5126, "count" : 4980, "type" : "VEC3", "max" : [1.2094999551773071, 1.3640999794006348, 1.4017000198364258], "min" : [-1.3877999782562256, -0.5349000096321106, -1.246500015258789], "name" : "POSITION"}, {"bufferView" : 1, "byteOffset" : 12, "componentType" : 5126, "count" : 4980, "type" : "VEC2", "max" : [0.9980000257492065, -0.0019000000320374966], "min" : [0.20160000026226044, -0.9980000257492065], "name" : "TEXCOORD_0"}, {"bufferView" : 1, "byteOffset" : 20, "componentType" : 5126, "count" : 4980, "type" : "VEC3", "max" : [0.9947625994682312, 0.9988563060760498, 0.9994305372238159], "min" : [-1.0000025033950806, -0.9980314373970032, -0.9970061182975769], "name" : "NORMAL"}], "asset" : {"generator" : "Aspose.3D 22.5.1", "version" : "2.0"}, "buffers" : [{"uri" : "data:application/octet-stream;base64,", "byteLength" : 215228}], "bufferViews" : [{"buffer" : 0, "byteOffset" : 0, "byteLength" : 12660, "target" : 34963}, {"buffer" : 0, "byteOffset" : 12664, "byteLength" : 202560, "byteStride" : 32, "target" : 34962}], "meshes" : [{"primitives" : [{"attributes" : {"POSITION" : 1, "TEXCOORD_0" : 2, "NORMAL" : 3}, "indices" : 0, "mode" : 4}], "name" : ""}], "nodes" : [{"mesh" : 0, "name" : "Rock_6"}], "scene" : 0, "scenes" : [{"nodes" : [0]}]}