<?xml version="1.0" encoding="utf-8"?>
<svg viewBox="0 0 512 512" style="enable-background:new 0 0 512 512;" xmlns="http://www.w3.org/2000/svg">
  <rect x="-0.588" y="-0.589" width="512.589" height="512" style="fill: rgb(216, 216, 216); stroke: rgb(0, 0, 0); paint-order: fill; stroke-width: 20px; pointer-events: none;"/>
  <path d="M 435.146 391.177 L 304.546 260.577 L 435.146 129.977 C 449.246 115.877 449.246 93.177 435.146 79.077 C 421.046 64.977 398.346 64.977 384.246 79.077 L 253.646 209.677 L 123.046 79.077 C 108.946 64.977 86.246 64.977 72.146 79.077 C 58.046 93.177 58.046 115.877 72.146 129.977 L 202.746 260.577 L 72.146 391.177 C 58.046 405.277 58.046 427.977 72.146 442.077 C 86.246 456.177 108.946 456.177 123.046 442.077 L 253.646 311.477 L 384.246 442.077 C 398.346 456.177 421.046 456.177 435.146 442.077 C 449.146 427.977 449.146 405.177 435.146 391.177 Z" style=""/>
</svg>